{
  "source": "C:\\Users\\Peter\\Desktop\\stuff\\MIUN\\quantitative_research\\video_compression\\videos\\HEVC_CLASS_B\\BQTerrace_1920x1080_60.y4m",
  "output": "C:\\Users\\Peter\\Desktop\\stuff\\MIUN\\quantitative_research\\video_compression\\compressed_videos\\HEVC_CLASS_B\\vp9\\4\\BQTerrace_1920x1080_60_vp9.webm",
  "codec": "vp9",
  "ok": "Input #0, yuv4mpegpipe, from 'C:\\Users\\Peter\\Desktop\\stuff\\MIUN\\quantitative_research\\video_compression\\videos\\HEVC_CLASS_B\\BQTerrace_1920x1080_60.y4m':\n  Duration: 00:00:10.00, start: 0.000000, bitrate: 1492994 kb/s\n  Stream #0:0: Video: rawvideo (I420 / 0x30323449), yuv420p(progressive), 1920x1080, 60 fps, 60 tbr, 60 tbn\n[out#0/webm @ 00000243b3d49b80] Codec AVOption b:a (set bitrate (in bits/s)) has not been used for any stream. The most likely reason is either wrong type (e.g. a video option with no video streams) or that it is a private option of some decoder which was not actually used for any stream.\nStream mapping:\n  Stream #0:0 -> #0:0 (rawvideo (native) -> vp9 (libvpx-vp9))\nPress [q] to stop, [?] for help\n[libvpx-vp9 @ 00000243b3d4cf40] v1.15.2-100-g40561f514\nOutput #0, webm, to 'C:\\Users\\Peter\\Desktop\\stuff\\MIUN\\quantitative_research\\video_compression\\compressed_videos\\HEVC_CLASS_B\\vp9\\4\\BQTerrace_1920x1080_60_vp9.webm':\n  Metadata:\n    encoder         : Lavf62.3.100\n  Stream #0:0: Video: vp9, yuv420p(tv, progressive), 1920x1080, q=2-31, 4000 kb/s, 60 fps, 1k tbn\n    Metadata:\n      encoder         : Lavc62.11.100 libvpx-vp9\n    Side data:\n      cpb: bitrate max/min/avg: 0/0/0 buffer size: 4000000 vbv_delay: N/A\nframe=    0 fps=0.0 q=0.0 size=       0KiB time=N/A bitrate=N/A speed=N/A elapsed=0:00:00.51    \nframe=    6 fps=5.8 q=45.0 size=       0KiB time=00:00:00.10 bitrate=  38.5kbits/s speed=0.0971x elapsed=0:00:01.02    \nframe=   11 fps=7.1 q=44.0 size=       0KiB time=00:00:00.18 bitrate=  21.0kbits/s speed=0.119x elapsed=0:00:01.54    \nframe=   15 fps=7.3 q=41.0 size=       0KiB time=00:00:00.25 bitrate=  15.4kbits/s speed=0.121x elapsed=0:00:02.06    \nframe=   19 fps=7.3 q=43.0 size=       0KiB time=00:00:00.31 bitrate=  12.2kbits/s speed=0.122x elapsed=0:00:02.59    \nframe=   23 fps=7.4 q=43.0 size=       0KiB time=00:00:00.38 bitrate=  10.0kbits/s speed=0.123x elapsed=0:00:03.12    \nframe=   26 fps=7.1 q=43.0 size=       0KiB time=00:00:00.43 bitrate=   8.9kbits/s speed=0.118x elapsed=0:00:03.66    \nframe=   30 fps=7.2 q=43.0 size=       0KiB time=00:00:00.50 bitrate=   7.7kbits/s speed=0.119x elapsed=0:00:04.19    \nframe=   34 fps=7.2 q=43.0 size=       0KiB time=00:00:00.56 bitrate=   6.8kbits/s speed=0.12x elapsed=0:00:04.70    \nframe=   38 fps=7.3 q=42.0 size=       0KiB time=00:00:00.63 bitrate=   6.1kbits/s speed=0.121x elapsed=0:00:05.22    \nframe=   42 fps=7.3 q=43.0 size=       0KiB time=00:00:00.70 bitrate=   5.5kbits/s speed=0.122x elapsed=0:00:05.74    \nframe=   46 fps=7.3 q=43.0 size=       0KiB time=00:00:00.76 bitrate=   5.0kbits/s speed=0.122x elapsed=0:00:06.27    \nframe=   49 fps=7.2 q=30.0 size=       0KiB time=00:00:00.81 bitrate=   4.7kbits/s speed=0.12x elapsed=0:00:06.79    \nframe=   54 fps=7.4 q=43.0 size=       0KiB time=00:00:00.90 bitrate=   4.3kbits/s speed=0.123x elapsed=0:00:07.31    \nframe=   58 fps=7.4 q=43.0 size=       0KiB time=00:00:00.96 bitrate=   4.0kbits/s speed=0.123x elapsed=0:00:07.83    \nframe=   62 fps=7.4 q=44.0 size=       0KiB time=00:00:01.03 bitrate=   3.7kbits/s speed=0.124x elapsed=0:00:08.35    \nframe=   65 fps=7.3 q=42.0 size=       0KiB time=00:00:01.08 bitrate=   3.6kbits/s speed=0.122x elapsed=0:00:08.87    \nframe=   70 fps=7.5 q=43.0 size=       0KiB time=00:00:01.16 bitrate=   3.3kbits/s speed=0.124x elapsed=0:00:09.39    \nframe=   73 fps=7.4 q=30.0 size=       0KiB time=00:00:01.21 bitrate=   3.2kbits/s speed=0.123x elapsed=0:00:09.91    \nframe=   77 fps=7.4 q=42.0 size=       0KiB time=00:00:01.28 bitrate=   3.0kbits/s speed=0.123x elapsed=0:00:10.43    \nframe=   82 fps=7.5 q=44.0 size=       0KiB time=00:00:01.36 bitrate=   2.8kbits/s speed=0.125x elapsed=0:00:10.95    \nframe=   85 fps=7.4 q=35.0 size=       0KiB time=00:00:01.41 bitrate=   2.7kbits/s speed=0.123x elapsed=0:00:11.48    \nframe=   89 fps=7.4 q=41.0 size=       0KiB time=00:00:01.48 bitrate=   2.6kbits/s speed=0.124x elapsed=0:00:12.00    \nframe=   93 fps=7.4 q=42.0 size=       0KiB time=00:00:01.55 bitrate=   2.5kbits/s speed=0.124x elapsed=0:00:12.52    \nframe=   96 fps=7.4 q=43.0 size=       0KiB time=00:00:01.60 bitrate=   2.4kbits/s speed=0.123x elapsed=0:00:13.05    \nframe=  101 fps=7.4 q=43.0 size=       0KiB time=00:00:01.68 bitrate=   2.3kbits/s speed=0.124x elapsed=0:00:13.59    \nframe=  104 fps=7.4 q=44.0 size=       0KiB time=00:00:01.73 bitrate=   2.2kbits/s speed=0.123x elapsed=0:00:14.14    \nframe=  108 fps=7.4 q=44.0 size=       0KiB time=00:00:01.80 bitrate=   2.1kbits/s speed=0.123x elapsed=0:00:14.65    \nframe=  113 fps=7.4 q=42.0 size=       0KiB time=00:00:01.88 bitrate=   2.0kbits/s speed=0.124x elapsed=0:00:15.18    \nframe=  116 fps=7.4 q=42.0 size=       0KiB time=00:00:01.93 bitrate=   2.0kbits/s speed=0.123x elapsed=0:00:15.69    \nframe=  120 fps=7.4 q=41.0 size=       0KiB time=00:00:02.00 bitrate=   1.9kbits/s speed=0.123x elapsed=0:00:16.21    \nframe=  125 fps=7.5 q=41.0 size=       0KiB time=00:00:02.08 bitrate=   1.8kbits/s speed=0.124x elapsed=0:00:16.74    \nframe=  128 fps=7.4 q=42.0 size=       0KiB time=00:00:02.13 bitrate=   1.8kbits/s speed=0.124x elapsed=0:00:17.25    \nframe=  132 fps=7.4 q=42.0 size=    1024KiB time=00:00:02.20 bitrate=3813.0kbits/s speed=0.124x elapsed=0:00:17.77    \nframe=  137 fps=7.5 q=41.0 size=    1024KiB time=00:00:02.28 bitrate=3673.8kbits/s speed=0.125x elapsed=0:00:18.29    \nframe=  141 fps=7.5 q=45.0 size=    1024KiB time=00:00:02.35 bitrate=3569.6kbits/s speed=0.125x elapsed=0:00:18.81    \nframe=  146 fps=7.6 q=42.0 size=    1024KiB time=00:00:02.43 bitrate=3447.4kbits/s speed=0.126x elapsed=0:00:19.33    \nframe=  151 fps=7.6 q=42.0 size=    1024KiB time=00:00:02.51 bitrate=3333.2kbits/s speed=0.127x elapsed=0:00:19.85    \nframe=  155 fps=7.6 q=39.0 size=    1024KiB time=00:00:02.58 bitrate=3247.2kbits/s speed=0.127x elapsed=0:00:20.41    \nframe=  159 fps=7.6 q=39.0 size=    1024KiB time=00:00:02.65 bitrate=3165.5kbits/s speed=0.127x elapsed=0:00:20.94    \nframe=  163 fps=7.6 q=40.0 size=    1024KiB time=00:00:02.71 bitrate=3087.8kbits/s speed=0.127x elapsed=0:00:21.46    \nframe=  167 fps=7.6 q=38.0 size=    1024KiB time=00:00:02.78 bitrate=3013.9kbits/s speed=0.127x elapsed=0:00:21.99    \nframe=  172 fps=7.6 q=39.0 size=    1024KiB time=00:00:02.86 bitrate=2926.3kbits/s speed=0.127x elapsed=0:00:22.52    \nframe=  176 fps=7.6 q=30.0 size=    1024KiB time=00:00:02.93 bitrate=2859.8kbits/s speed=0.127x elapsed=0:00:23.02    \nframe=  181 fps=7.7 q=37.0 size=    1024KiB time=00:00:03.01 bitrate=2780.8kbits/s speed=0.128x elapsed=0:00:23.54    \nframe=  185 fps=7.7 q=39.0 size=    1024KiB time=00:00:03.08 bitrate=2720.6kbits/s speed=0.128x elapsed=0:00:24.06    \nframe=  189 fps=7.7 q=38.0 size=    1024KiB time=00:00:03.15 bitrate=2663.1kbits/s speed=0.128x elapsed=0:00:24.58    \nframe=  194 fps=7.7 q=38.0 size=    1024KiB time=00:00:03.23 bitrate=2594.4kbits/s speed=0.129x elapsed=0:00:25.10    \nframe=  199 fps=7.8 q=38.0 size=    1024KiB time=00:00:03.31 bitrate=2529.2kbits/s speed=0.129x elapsed=0:00:25.61    \nframe=  203 fps=7.8 q=37.0 size=    1024KiB time=00:00:03.38 bitrate=2479.4kbits/s speed=0.129x elapsed=0:00:26.15    \nframe=  209 fps=7.8 q=37.0 size=    1024KiB time=00:00:03.48 bitrate=2408.2kbits/s speed=0.131x elapsed=0:00:26.67    \nframe=  213 fps=7.8 q=38.0 size=    1024KiB time=00:00:03.55 bitrate=2363.0kbits/s speed=0.13x elapsed=0:00:27.20    \nframe=  218 fps=7.9 q=38.0 size=    1024KiB time=00:00:03.63 bitrate=2308.8kbits/s speed=0.131x elapsed=0:00:27.73    \nframe=  222 fps=7.9 q=38.0 size=    1024KiB time=00:00:03.70 bitrate=2267.2kbits/s speed=0.131x elapsed=0:00:28.24    \nframe=  226 fps=7.9 q=36.0 size=    1024KiB time=00:00:03.76 bitrate=2227.1kbits/s speed=0.131x elapsed=0:00:28.76    \nframe=  231 fps=7.9 q=38.0 size=    1024KiB time=00:00:03.85 bitrate=2178.9kbits/s speed=0.131x elapsed=0:00:29.30    \nframe=  235 fps=7.9 q=38.0 size=    1024KiB time=00:00:03.91 bitrate=2141.8kbits/s speed=0.131x elapsed=0:00:29.84    \nframe=  240 fps=7.9 q=38.0 size=    1024KiB time=00:00:04.00 bitrate=2097.2kbits/s speed=0.132x elapsed=0:00:30.35    \nframe=  245 fps=7.9 q=39.0 size=    1024KiB time=00:00:04.08 bitrate=2054.4kbits/s speed=0.132x elapsed=0:00:30.87    \nframe=  249 fps=7.9 q=37.0 size=    1024KiB time=00:00:04.15 bitrate=2021.4kbits/s speed=0.132x elapsed=0:00:31.40    \nframe=  254 fps=8.0 q=39.0 size=    1024KiB time=00:00:04.23 bitrate=1981.6kbits/s speed=0.133x elapsed=0:00:31.91    \nframe=  257 fps=7.9 q=30.0 size=    1024KiB time=00:00:04.28 bitrate=1958.4kbits/s speed=0.132x elapsed=0:00:32.44    \nframe=  262 fps=8.0 q=40.0 size=    2304KiB time=00:00:04.36 bitrate=4322.4kbits/s speed=0.133x elapsed=0:00:32.95    \nframe=  268 fps=8.0 q=39.0 size=    2304KiB time=00:00:04.46 bitrate=4225.6kbits/s speed=0.133x elapsed=0:00:33.46    \nframe=  272 fps=8.0 q=38.0 size=    2304KiB time=00:00:04.53 bitrate=4163.5kbits/s speed=0.133x elapsed=0:00:33.98    \nframe=  277 fps=8.0 q=39.0 size=    2304KiB time=00:00:04.61 bitrate=4088.3kbits/s speed=0.134x elapsed=0:00:34.49    \nframe=  280 fps=8.0 q=39.0 size=    2304KiB time=00:00:04.66 bitrate=4044.5kbits/s speed=0.133x elapsed=0:00:35.02    \nframe=  284 fps=8.0 q=39.0 size=    2304KiB time=00:00:04.73 bitrate=3987.5kbits/s speed=0.133x elapsed=0:00:35.53    \nframe=  289 fps=8.0 q=39.0 size=    2304KiB time=00:00:04.81 bitrate=3918.6kbits/s speed=0.134x elapsed=0:00:36.06    \nframe=  292 fps=8.0 q=39.0 size=    2304KiB time=00:00:04.86 bitrate=3878.3kbits/s speed=0.133x elapsed=0:00:36.58    \nframe=  297 fps=8.0 q=38.0 size=    2304KiB time=00:00:04.95 bitrate=3813.0kbits/s speed=0.133x elapsed=0:00:37.11    \nframe=  302 fps=8.0 q=40.0 size=    2304KiB time=00:00:05.03 bitrate=3749.9kbits/s speed=0.134x elapsed=0:00:37.62    \nframe=  305 fps=8.0 q=31.0 size=    2304KiB time=00:00:05.08 bitrate=3713.0kbits/s speed=0.133x elapsed=0:00:38.14    \nframe=  309 fps=8.0 q=38.0 size=    2304KiB time=00:00:05.15 bitrate=3664.9kbits/s speed=0.133x elapsed=0:00:38.69    \nframe=  313 fps=8.0 q=39.0 size=    2304KiB time=00:00:05.21 bitrate=3618.1kbits/s speed=0.133x elapsed=0:00:39.21    \nframe=  317 fps=8.0 q=32.0 size=    2304KiB time=00:00:05.28 bitrate=3572.4kbits/s speed=0.133x elapsed=0:00:39.73    \nframe=  321 fps=8.0 q=40.0 size=    2304KiB time=00:00:05.35 bitrate=3527.9kbits/s speed=0.133x elapsed=0:00:40.26    \nframe=  325 fps=8.0 q=40.0 size=    2304KiB time=00:00:05.41 bitrate=3484.5kbits/s speed=0.133x elapsed=0:00:40.78    \nframe=  329 fps=8.0 q=41.0 size=    2304KiB time=00:00:05.48 bitrate=3442.1kbits/s speed=0.133x elapsed=0:00:41.31    \nframe=  334 fps=8.0 q=41.0 size=    2304KiB time=00:00:05.56 bitrate=3390.6kbits/s speed=0.133x elapsed=0:00:41.84    \nframe=  338 fps=8.0 q=42.0 size=    2304KiB time=00:00:05.63 bitrate=3350.5kbits/s speed=0.133x elapsed=0:00:42.39    \nframe=  343 fps=8.0 q=42.0 size=    2304KiB time=00:00:05.71 bitrate=3301.6kbits/s speed=0.133x elapsed=0:00:42.92    \nframe=  347 fps=8.0 q=32.0 size=    2304KiB time=00:00:05.78 bitrate=3263.6kbits/s speed=0.133x elapsed=0:00:43.45    \nframe=  352 fps=8.0 q=42.0 size=    2304KiB time=00:00:05.86 bitrate=3217.2kbits/s speed=0.133x elapsed=0:00:43.96    \nframe=  357 fps=8.0 q=42.0 size=    2304KiB time=00:00:05.95 bitrate=3172.2kbits/s speed=0.134x elapsed=0:00:44.47    \nframe=  361 fps=8.0 q=39.0 size=    2304KiB time=00:00:06.01 bitrate=3137.0kbits/s speed=0.134x elapsed=0:00:45.00    \nframe=  365 fps=8.0 q=41.0 size=    2304KiB time=00:00:06.08 bitrate=3102.6kbits/s speed=0.134x elapsed=0:00:45.54    \nframe=  370 fps=8.0 q=41.0 size=    2304KiB time=00:00:06.16 bitrate=3060.7kbits/s speed=0.134x elapsed=0:00:46.06    \nframe=  375 fps=8.0 q=43.0 size=    2304KiB time=00:00:06.25 bitrate=3019.9kbits/s speed=0.134x elapsed=0:00:46.58    \nframe=  379 fps=8.0 q=41.0 size=    2304KiB time=00:00:06.31 bitrate=2988.0kbits/s speed=0.134x elapsed=0:00:47.10    \nframe=  383 fps=8.0 q=42.0 size=    2304KiB time=00:00:06.38 bitrate=2956.8kbits/s speed=0.134x elapsed=0:00:47.63    \nframe=  386 fps=8.0 q=37.0 size=    3584KiB time=00:00:06.43 bitrate=4563.8kbits/s speed=0.134x elapsed=0:00:48.15    \nframe=  390 fps=8.0 q=41.0 size=    3584KiB time=00:00:06.50 bitrate=4516.9kbits/s speed=0.133x elapsed=0:00:48.69    \nframe=  395 fps=8.0 q=41.0 size=    3584KiB time=00:00:06.58 bitrate=4459.8kbits/s speed=0.134x elapsed=0:00:49.20    \nframe=  398 fps=8.0 q=43.0 size=    3584KiB time=00:00:06.63 bitrate=4426.2kbits/s speed=0.133x elapsed=0:00:49.73    \nframe=  402 fps=8.0 q=41.0 size=    3584KiB time=00:00:06.70 bitrate=4382.1kbits/s speed=0.133x elapsed=0:00:50.24    \nframe=  406 fps=8.0 q=41.0 size=    3584KiB time=00:00:06.76 bitrate=4338.9kbits/s speed=0.133x elapsed=0:00:50.76    \nframe=  410 fps=8.0 q=42.0 size=    3584KiB time=00:00:06.83 bitrate=4296.6kbits/s speed=0.133x elapsed=0:00:51.28    \nframe=  414 fps=8.0 q=42.0 size=    3584KiB time=00:00:06.90 bitrate=4255.1kbits/s speed=0.133x elapsed=0:00:51.79    \nframe=  418 fps=8.0 q=42.0 size=    3584KiB time=00:00:06.96 bitrate=4214.4kbits/s speed=0.133x elapsed=0:00:52.31    \nframe=  422 fps=8.0 q=39.0 size=    3584KiB time=00:00:07.03 bitrate=4174.4kbits/s speed=0.133x elapsed=0:00:52.83    \nframe=  425 fps=8.0 q=39.0 size=    3584KiB time=00:00:07.08 bitrate=4145.0kbits/s speed=0.133x elapsed=0:00:53.36    \nframe=  429 fps=8.0 q=40.0 size=    3584KiB time=00:00:07.15 bitrate=4106.3kbits/s speed=0.133x elapsed=0:00:53.87    \nframe=  432 fps=7.9 q=40.0 size=    3584KiB time=00:00:07.20 bitrate=4077.8kbits/s speed=0.132x elapsed=0:00:54.38    \nframe=  436 fps=7.9 q=40.0 size=    3584KiB time=00:00:07.26 bitrate=4040.4kbits/s speed=0.132x elapsed=0:00:54.92    \nframe=  440 fps=7.9 q=40.0 size=    3584KiB time=00:00:07.33 bitrate=4003.7kbits/s speed=0.132x elapsed=0:00:55.44    \nframe=  443 fps=7.9 q=40.0 size=    3584KiB time=00:00:07.38 bitrate=3976.5kbits/s speed=0.132x elapsed=0:00:55.96    \nframe=  447 fps=7.9 q=39.0 size=    3584KiB time=00:00:07.45 bitrate=3941.0kbits/s speed=0.132x elapsed=0:00:56.49    \nframe=  451 fps=7.9 q=40.0 size=    3584KiB time=00:00:07.51 bitrate=3906.0kbits/s speed=0.132x elapsed=0:00:57.01    \nframe=  455 fps=7.9 q=41.0 size=    3584KiB time=00:00:07.58 bitrate=3871.7kbits/s speed=0.132x elapsed=0:00:57.55    \nframe=  458 fps=7.9 q=42.0 size=    3584KiB time=00:00:07.63 bitrate=3846.3kbits/s speed=0.131x elapsed=0:00:58.10    \nframe=  462 fps=7.9 q=41.0 size=    3584KiB time=00:00:07.70 bitrate=3813.0kbits/s speed=0.131x elapsed=0:00:58.61    \nframe=  466 fps=7.9 q=41.0 size=    3584KiB time=00:00:07.76 bitrate=3780.3kbits/s speed=0.131x elapsed=0:00:59.13    \nframe=  469 fps=7.9 q=30.0 size=    3584KiB time=00:00:07.81 bitrate=3756.1kbits/s speed=0.131x elapsed=0:00:59.68    \nframe=  473 fps=7.9 q=41.0 size=    3584KiB time=00:00:07.88 bitrate=3724.3kbits/s speed=0.131x elapsed=0:01:00.21    \nframe=  478 fps=7.9 q=41.0 size=    3584KiB time=00:00:07.96 bitrate=3685.4kbits/s speed=0.131x elapsed=0:01:00.73    \nframe=  481 fps=7.8 q=31.0 size=    3584KiB time=00:00:08.01 bitrate=3662.4kbits/s speed=0.131x elapsed=0:01:01.27    \nframe=  485 fps=7.8 q=40.0 size=    3584KiB time=00:00:08.08 bitrate=3632.2kbits/s speed=0.131x elapsed=0:01:01.81    \nframe=  489 fps=7.8 q=42.0 size=    3584KiB time=00:00:08.15 bitrate=3602.5kbits/s speed=0.131x elapsed=0:01:02.34    \nframe=  493 fps=7.8 q=32.0 size=    3584KiB time=00:00:08.21 bitrate=3573.2kbits/s speed=0.131x elapsed=0:01:02.85    \nframe=  497 fps=7.8 q=41.0 size=    3584KiB time=00:00:08.28 bitrate=3544.5kbits/s speed=0.131x elapsed=0:01:03.37    \nframe=  502 fps=7.9 q=42.0 size=    3584KiB time=00:00:08.36 bitrate=3509.2kbits/s speed=0.131x elapsed=0:01:03.89    \nframe=  505 fps=7.8 q=41.0 size=    3584KiB time=00:00:08.41 bitrate=3488.3kbits/s speed=0.131x elapsed=0:01:04.45    \nframe=  509 fps=7.8 q=42.0 size=    3584KiB time=00:00:08.48 bitrate=3460.9kbits/s speed=0.131x elapsed=0:01:04.97    \nframe=  512 fps=7.8 q=42.0 size=    3584KiB time=00:00:08.53 bitrate=3440.6kbits/s speed=0.13x elapsed=0:01:05.50    \nframe=  515 fps=7.8 q=41.0 size=    4608KiB time=00:00:08.58 bitrate=4397.9kbits/s speed=0.13x elapsed=0:01:06.02    \nframe=  519 fps=7.8 q=41.0 size=    4608KiB time=00:00:08.65 bitrate=4364.0kbits/s speed=0.13x elapsed=0:01:06.57    \nframe=  523 fps=7.8 q=42.0 size=    4608KiB time=00:00:08.71 bitrate=4330.6kbits/s speed=0.13x elapsed=0:01:07.08    \nframe=  528 fps=7.8 q=42.0 size=    4608KiB time=00:00:08.80 bitrate=4289.6kbits/s speed=0.13x elapsed=0:01:07.61    \nframe=  532 fps=7.8 q=43.0 size=    4608KiB time=00:00:08.86 bitrate=4257.4kbits/s speed=0.13x elapsed=0:01:08.14    \nframe=  535 fps=7.8 q=31.0 size=    4608KiB time=00:00:08.91 bitrate=4233.5kbits/s speed=0.13x elapsed=0:01:08.67    \nframe=  539 fps=7.8 q=42.0 size=    4608KiB time=00:00:08.98 bitrate=4202.1kbits/s speed=0.13x elapsed=0:01:09.18    \nframe=  543 fps=7.8 q=41.0 size=    4608KiB time=00:00:09.05 bitrate=4171.1kbits/s speed=0.13x elapsed=0:01:09.70    \nframe=  546 fps=7.8 q=42.0 size=    4608KiB time=00:00:09.10 bitrate=4148.2kbits/s speed=0.13x elapsed=0:01:10.22    \nframe=  551 fps=7.8 q=40.0 size=    4608KiB time=00:00:09.18 bitrate=4110.6kbits/s speed=0.13x elapsed=0:01:10.73    \nframe=  555 fps=7.8 q=40.0 size=    4608KiB time=00:00:09.25 bitrate=4080.9kbits/s speed=0.13x elapsed=0:01:11.28    \nframe=  558 fps=7.8 q=41.0 size=    4608KiB time=00:00:09.30 bitrate=4059.0kbits/s speed=0.129x elapsed=0:01:11.81    \nframe=  562 fps=7.8 q=39.0 size=    4608KiB time=00:00:09.36 bitrate=4030.1kbits/s speed=0.129x elapsed=0:01:12.36    \nframe=  566 fps=7.8 q=40.0 size=    4608KiB time=00:00:09.43 bitrate=4001.6kbits/s speed=0.129x elapsed=0:01:12.87    \nframe=  570 fps=7.8 q=41.0 size=    4608KiB time=00:00:09.50 bitrate=3973.6kbits/s speed=0.129x elapsed=0:01:13.42    \nframe=  573 fps=7.7 q=40.0 size=    4608KiB time=00:00:09.55 bitrate=3952.7kbits/s speed=0.129x elapsed=0:01:13.96    \nframe=  576 fps=7.7 q=40.0 size=    4608KiB time=00:00:09.60 bitrate=3932.2kbits/s speed=0.129x elapsed=0:01:14.48    \nframe=  576 fps=7.7 q=40.0 size=    4608KiB time=00:00:09.60 bitrate=3932.2kbits/s speed=0.128x elapsed=0:01:15.01    \nframe=  576 fps=7.6 q=40.0 size=    4608KiB time=00:00:09.60 bitrate=3932.2kbits/s speed=0.127x elapsed=0:01:15.53    \nframe=  576 fps=7.6 q=40.0 size=    4608KiB time=00:00:09.60 bitrate=3932.2kbits/s speed=0.126x elapsed=0:01:16.06    \nframe=  576 fps=7.5 q=40.0 size=    4608KiB time=00:00:09.60 bitrate=3932.2kbits/s speed=0.125x elapsed=0:01:16.57    \nframe=  576 fps=7.5 q=40.0 size=    4608KiB time=00:00:09.60 bitrate=3932.2kbits/s speed=0.125x elapsed=0:01:17.09    \nframe=  576 fps=7.4 q=40.0 size=    4608KiB time=00:00:09.60 bitrate=3932.2kbits/s speed=0.124x elapsed=0:01:17.60    \n[out#0/webm @ 00000243b3d49b80] video:5743KiB audio:0KiB subtitle:0KiB other streams:0KiB global headers:0KiB muxing overhead: 0.083106%\nframe=  600 fps=7.7 q=40.0 Lsize=    5747KiB time=00:00:10.00 bitrate=4708.3kbits/s speed=0.129x elapsed=0:01:17.71    \n",
  "seconds": 77.83479881286621,
  "probe_out": {}
}